<?xml version="1.0" encoding="UTF-8"?>
<!DOCTYPE svg PUBLIC "-//W3C//DTD SVG 1.1//EN" "http://www.w3.org/Graphics/SVG/1.1/DTD/svg11.dtd">
<!-- Creator: CorelDRAW X7 -->
<svg xmlns="http://www.w3.org/2000/svg" xml:space="preserve" width="179.318mm" height="114.167mm" version="1.1" style="shape-rendering:geometricPrecision; text-rendering:geometricPrecision; image-rendering:optimizeQuality; fill-rule:evenodd; clip-rule:evenodd"
viewBox="0 0 17971 11442"
 xmlns:xlink="http://www.w3.org/1999/xlink">
 <defs>
  <style type="text/css">
   <![CDATA[
    .str0 {stroke:#C49C6D;stroke-width:150.331}
    .fil1 {fill:none}
    .fil3 {fill:#C49C6D}
    .fil2 {fill:#4D7588}
    .fil0 {fill:#282D4A}
   ]]>
  </style>
 </defs>
 <g id="Layer_x0020_1">
  <metadata id="CorelCorpID_0Corel-Layer"/>
  <g id="_2514786643232">
   <path class="fil0" d="M1459 6868c0,-87 9,-173 28,-257 18,-85 48,-166 89,-245 42,-80 92,-149 151,-209 60,-60 133,-107 221,-144 88,-36 184,-54 289,-54 122,0 229,34 322,101 94,66 140,145 140,237 0,46 -15,85 -44,118 -29,33 -69,49 -120,49 -49,0 -88,-15 -119,-45 -30,-30 -45,-69 -45,-115 0,-45 14,-83 43,-115 29,-30 65,-46 108,-46 8,0 15,0 18,1l0 -4c-11,-22 -43,-47 -95,-74 -51,-28 -113,-42 -186,-42 -143,0 -260,74 -351,222 -91,149 -137,344 -137,586 0,105 9,203 27,296 18,93 44,177 80,253 36,76 84,137 144,182 60,45 129,67 207,67 111,0 207,-33 290,-99 82,-66 146,-151 192,-254l55 26c-112,276 -300,414 -565,414 -115,0 -216,-16 -305,-48 -88,-32 -159,-75 -214,-128 -54,-53 -99,-117 -133,-192 -34,-75 -58,-151 -71,-228 -13,-78 -19,-162 -19,-253zm1396 -25c0,-161 29,-308 87,-441 58,-133 143,-240 255,-321 112,-81 242,-122 388,-122 221,0 399,78 534,234 135,156 202,360 202,613 0,92 -9,182 -27,268 -19,87 -47,170 -87,248 -39,77 -86,146 -142,204 -56,58 -125,105 -206,139 -82,35 -170,52 -267,52 -229,0 -409,-80 -540,-240 -131,-159 -197,-371 -197,-634zm315 -25c0,154 15,293 45,417 31,124 78,224 142,301 64,77 140,116 228,116 132,0 235,-76 309,-229 75,-153 113,-355 113,-608 0,-263 -37,-460 -110,-592 -73,-133 -175,-199 -305,-199 -45,0 -88,10 -129,28 -41,19 -80,49 -116,91 -36,41 -67,92 -93,153 -25,60 -46,135 -62,225 -15,89 -22,188 -22,297zm1278 858l0 -53 181 -12 0 -1546 -181 -12 0 -53 626 0c87,0 165,8 235,23 71,15 133,38 188,70 56,32 98,76 128,130 31,55 45,119 45,194 0,133 -44,238 -135,313 -90,75 -212,123 -365,145l0 2c66,1 123,12 171,32 48,20 87,46 115,78 29,31 56,72 82,122 17,35 42,87 73,158 32,71 64,133 95,188 25,45 51,79 79,103 27,25 50,39 69,45 18,5 40,8 64,8l0 65 -195 0c-59,0 -106,-4 -140,-11 -35,-8 -69,-26 -103,-54 -34,-28 -64,-67 -91,-116 -27,-50 -72,-154 -136,-312 -10,-23 -23,-54 -41,-91 -18,-37 -33,-65 -46,-84 -13,-20 -28,-40 -46,-61 -17,-21 -35,-36 -54,-45 -18,-9 -37,-13 -58,-13 -34,0 -61,0 -79,1l0 721 181 12 0 53 -662 0zm481 -851c9,1 25,1 48,1 140,0 238,-34 295,-102 57,-68 85,-170 85,-305 0,-68 -8,-125 -24,-172 -16,-47 -39,-84 -69,-110 -29,-26 -62,-44 -98,-55 -36,-11 -78,-17 -124,-17 -31,0 -68,3 -113,10l0 750zm978 851l0 -53 180 -12 0 -1546 -180 -12 0 -53 637 0c86,0 166,9 239,28 73,18 139,46 198,83 59,37 105,87 138,150 33,62 50,134 50,215 0,76 -13,143 -38,204 -25,60 -60,110 -103,151 -43,41 -95,75 -156,102 -60,27 -124,47 -192,59 -68,12 -140,18 -216,18 -16,0 -42,-1 -76,-2l0 603 181 12 0 53 -662 0zm481 -735c27,3 55,4 83,4 257,0 386,-157 386,-470 0,-76 -9,-141 -26,-195 -17,-54 -42,-95 -75,-125 -32,-29 -68,-50 -108,-63 -39,-13 -85,-20 -135,-20 -39,0 -81,4 -125,10l0 859zm908 -98c0,-161 29,-308 87,-441 58,-133 143,-240 255,-321 112,-81 242,-122 388,-122 221,0 399,78 534,234 135,156 202,360 202,613 0,92 -9,182 -28,268 -18,87 -46,170 -86,248 -39,77 -86,146 -142,204 -56,58 -125,105 -206,139 -82,35 -171,52 -267,52 -229,0 -409,-80 -540,-240 -131,-159 -197,-371 -197,-634zm315 -25c0,154 15,293 45,417 31,124 78,224 142,301 64,77 140,116 228,116 131,0 235,-76 309,-229 75,-153 113,-355 113,-608 0,-263 -37,-460 -110,-592 -74,-133 -175,-199 -305,-199 -45,0 -88,10 -130,28 -40,19 -79,49 -115,91 -36,41 -67,92 -93,153 -26,60 -46,135 -62,225 -15,89 -22,188 -22,297zm1278 858l0 -53 181 -12 0 -1546 -181 -12 0 -53 626 0c87,0 165,8 235,23 70,15 133,38 188,70 56,32 98,76 128,130 31,55 45,119 45,194 0,133 -44,238 -135,313 -90,75 -212,123 -365,145l0 2c66,1 123,12 171,32 48,20 87,46 115,78 29,31 56,72 82,122 17,35 41,87 73,158 32,71 63,133 95,188 25,45 51,79 79,103 27,25 50,39 69,45 18,5 40,8 64,8l0 65 -195 0c-59,0 -106,-4 -140,-11 -35,-8 -69,-26 -103,-54 -34,-28 -64,-67 -91,-116 -27,-50 -72,-154 -137,-312 -9,-23 -22,-54 -40,-91 -18,-37 -33,-65 -46,-84 -13,-20 -28,-40 -46,-61 -17,-21 -35,-36 -54,-45 -18,-9 -38,-13 -58,-13 -34,0 -61,0 -79,1l0 721 181 12 0 53 -662 0zm481 -851c9,1 25,1 48,1 140,0 238,-34 295,-102 57,-68 85,-170 85,-305 0,-68 -8,-125 -24,-172 -16,-47 -39,-84 -69,-110 -30,-26 -62,-44 -98,-55 -37,-11 -78,-17 -124,-17 -31,0 -68,3 -113,10l0 750zm884 851l0 -53 142 -12 556 -1659 52 0 575 1659 155 12 0 53 -628 0 0 -53 158 -12 -138 -423 -527 0 -136 423 159 12 0 53 -368 0zm366 -558l480 -9 -235 -720 -5 0 -240 729zm996 -543l12 -575 1282 0 12 574 -65 0c-11,-60 -21,-109 -29,-146 -8,-36 -18,-75 -30,-116 -11,-40 -24,-72 -36,-95 -13,-22 -28,-45 -46,-67 -18,-23 -39,-40 -62,-50 -23,-11 -50,-20 -80,-26 -31,-7 -67,-10 -106,-10 -3,0 -10,0 -20,1 -9,0 -18,0 -26,0l0 1546 182 12 0 53 -662 0 0 -53 179 -12 -7 -1545c-8,0 -16,0 -26,0 -10,-1 -17,-1 -20,-1 -35,0 -66,2 -93,6 -28,4 -52,11 -75,22 -22,11 -41,23 -58,35 -16,13 -31,31 -45,54 -14,24 -26,46 -36,68 -10,22 -20,52 -31,90 -10,38 -26,116 -49,235l-65 0zm1406 1101l0 -53 181 -12 0 -1546 -181 -12 0 -53 1157 0 12 479 -49 0c-10,-54 -20,-99 -30,-136 -11,-37 -26,-75 -46,-112 -19,-38 -42,-68 -68,-90 -27,-23 -60,-41 -102,-55 -40,-14 -88,-21 -142,-21 -67,0 -151,4 -251,12l0 697c24,3 67,4 129,4 82,0 141,-20 177,-61 35,-40 53,-113 53,-219l64 0 0 630 -64 0c0,-106 -18,-181 -54,-222 -35,-42 -94,-63 -176,-63 -61,0 -103,1 -129,3l0 753c100,8 200,12 298,12 46,0 87,-4 122,-11 35,-7 66,-20 92,-37 26,-17 48,-37 66,-58 18,-21 33,-49 47,-83 14,-33 25,-67 34,-100 8,-34 17,-75 26,-125l51 0 -13 479 -1204 0zm2041 -455c0,-133 47,-246 140,-340 93,-93 221,-147 385,-161l0 -3c-42,0 -83,-4 -122,-12 -39,-6 -78,-18 -118,-35 -40,-17 -74,-38 -104,-63 -29,-25 -53,-58 -71,-99 -19,-40 -28,-86 -28,-138 0,-35 5,-70 15,-106 10,-36 28,-72 53,-109 25,-37 56,-70 93,-99 37,-29 86,-52 146,-70 60,-18 127,-27 201,-27 72,0 135,10 191,28 55,19 97,42 126,68 29,25 52,54 70,86 17,32 28,58 33,77 5,20 7,40 7,61 0,47 -15,87 -44,120 -30,34 -72,51 -127,51 -45,0 -82,-16 -111,-47 -30,-31 -44,-72 -44,-122 0,-44 14,-80 42,-109 28,-29 67,-45 116,-47l-1 -5c-15,-29 -41,-52 -79,-70 -38,-17 -81,-26 -129,-26 -88,0 -154,28 -198,84 -44,57 -66,134 -66,233 0,112 28,198 83,259 55,60 130,90 227,90l16 0 0 65 -21 0c-51,0 -97,7 -137,20 -41,13 -73,32 -99,55 -26,24 -47,49 -65,77 -18,28 -32,59 -41,93 -9,33 -15,64 -19,93 -3,28 -5,58 -5,88 0,149 31,262 93,341 61,79 152,118 272,118 32,0 66,-4 101,-11 35,-8 75,-23 118,-46 43,-22 81,-51 114,-87 33,-35 60,-84 83,-146 23,-62 34,-132 34,-211l-1 -65 -48 1 -236 0c-39,0 -72,3 -100,8 -28,6 -50,12 -65,19 -15,7 -26,16 -34,27 -9,12 -14,22 -16,29 -2,8 -3,17 -3,27 0,25 9,43 25,52l4 0c10,-17 25,-30 45,-40 21,-9 40,-14 57,-14 35,0 65,10 90,32 24,21 36,51 36,90 0,38 -13,68 -39,92 -26,24 -57,36 -93,36 -49,0 -92,-17 -129,-52 -37,-35 -55,-91 -55,-169 0,-17 0,-33 2,-49 2,-15 6,-36 14,-61 7,-26 17,-49 29,-70 13,-20 31,-42 56,-65 25,-23 54,-42 87,-58 33,-16 76,-29 128,-39 52,-11 110,-16 174,-16l236 0c39,0 73,-3 101,-9 28,-5 50,-11 65,-19 15,-6 26,-16 34,-27 9,-11 14,-21 16,-29 2,-8 3,-16 3,-27 0,-25 -9,-42 -25,-52l-4 0c-10,18 -25,31 -45,40 -21,10 -40,15 -57,15 -35,0 -65,-11 -90,-32 -24,-21 -36,-51 -36,-91 0,-37 13,-68 39,-92 26,-23 57,-36 93,-36 49,0 93,18 129,53 37,34 55,91 55,169 0,18 -1,36 -3,52 -3,17 -7,39 -14,66 -7,27 -20,52 -37,75 -18,23 -40,46 -66,68 -27,22 -62,42 -107,58 -45,16 -97,27 -154,33 2,26 4,51 4,74 0,83 -12,159 -34,227 -22,68 -56,128 -101,181 -45,52 -105,93 -180,122 -75,29 -162,44 -261,44 -113,0 -210,-13 -293,-39 -83,-27 -147,-63 -193,-110 -46,-47 -80,-99 -101,-157 -21,-57 -32,-120 -32,-190zm-15063 2937l0 -53 181 -12 0 -1546 -181 -12 0 -53 662 0 0 53 -181 12 0 1533c128,8 215,13 262,13 43,0 81,-1 113,-4 33,-2 62,-7 90,-15 26,-8 49,-16 67,-24 19,-9 36,-22 53,-41 16,-18 29,-36 39,-54 11,-17 24,-51 41,-102 16,-51 30,-109 43,-174l40 0 0 479 -1229 0zm1314 0l0 -53 181 -12 0 -1546 -181 -12 0 -53 1158 0 11 478 -49 0c-9,-53 -19,-98 -30,-135 -11,-37 -26,-75 -45,-113 -20,-37 -43,-67 -69,-89 -26,-23 -60,-41 -101,-55 -41,-14 -89,-21 -143,-21 -66,0 -150,4 -250,12l0 697c23,3 66,4 128,4 83,0 142,-20 177,-61 36,-40 53,-113 53,-219l65 0 0 630 -65 0c0,-107 -18,-181 -53,-222 -36,-42 -95,-63 -177,-63 -60,0 -103,1 -128,3l0 753c100,8 199,12 298,12 46,0 86,-4 122,-11 35,-8 65,-20 91,-37 26,-17 48,-37 66,-58 18,-22 34,-49 47,-83 14,-34 25,-67 34,-100 8,-34 18,-75 27,-125l50 0 -13 479 -1204 0zm1396 -804c0,-82 9,-164 27,-248 19,-83 49,-165 90,-245 41,-80 90,-151 149,-213 58,-62 131,-112 219,-150 87,-38 184,-57 288,-57 159,0 290,34 394,101 103,67 155,147 155,239 0,49 -16,91 -47,125 -31,35 -74,52 -129,52 -51,0 -92,-16 -124,-48 -33,-31 -49,-72 -49,-120 0,-53 17,-95 51,-126 34,-30 76,-45 129,-45l0 -5c-17,-20 -54,-42 -110,-67 -56,-24 -122,-36 -199,-36 -110,0 -206,34 -286,103 -81,68 -142,163 -184,284 -41,120 -62,260 -62,418 0,54 2,106 6,156 3,50 10,103 20,159 10,56 23,107 39,154 16,47 37,92 64,136 27,43 58,80 93,111 35,30 78,54 128,72 50,18 105,27 165,27 68,0 141,-11 219,-35l0 -639 -174 -13 0 -53 615 0 0 53 -173 13 0 621c-65,38 -148,68 -247,89 -100,21 -201,32 -304,32 -509,0 -763,-282 -763,-845zm1452 804l0 -53 142 -12 556 -1659 52 0 575 1659 155 12 0 53 -629 0 0 -53 159 -12 -138 -423 -527 0 -136 423 158 12 0 53 -367 0zm366 -558l479 -9 -234 -720 -5 0 -240 729zm1125 558l0 -53 181 -12 0 -1546 -181 -12 0 -53 662 0 0 53 -181 12 0 1533c128,8 215,13 262,13 43,0 81,-1 113,-4 33,-2 63,-7 90,-15 27,-8 49,-16 67,-24 19,-9 37,-22 53,-41 16,-18 30,-36 40,-54 10,-17 23,-51 40,-102 16,-51 31,-109 43,-174l40 0 0 479 -1229 0zm1819 0l0 -53 142 -12 555 -1659 53 0 575 1659 155 12 0 53 -629 0 0 -53 159 -12 -139 -423 -526 0 -136 423 158 12 0 53 -367 0zm366 -558l479 -9 -234 -720 -5 0 -240 729zm1125 558l0 -53 181 -12 0 -1546 -181 -12 0 -53 662 0 0 53 -181 12 0 1533c128,8 215,13 262,13 43,0 81,-1 113,-4 33,-2 62,-7 90,-15 26,-8 49,-16 67,-24 19,-9 36,-22 53,-41 16,-18 29,-36 39,-54 11,-17 24,-51 41,-102 16,-51 30,-109 43,-174l40 0 0 479 -1229 0zm1314 0l0 -53 181 -12 0 -1546 -181 -12 0 -53 662 0 0 53 -180 12 0 1533c127,8 214,13 261,13 44,0 81,-1 114,-4 32,-2 62,-7 89,-15 27,-8 50,-16 68,-24 18,-9 36,-22 52,-41 17,-18 30,-36 40,-54 10,-17 24,-51 40,-102 16,-51 31,-109 43,-174l40 0 0 479 -1229 0zm1315 0l0 -53 181 -12 0 -1546 -181 -12 0 -53 662 0 0 53 -181 12 0 1546 181 12 0 53 -662 0zm686 0l0 -53 141 -12 556 -1659 53 0 574 1659 155 12 0 53 -628 0 0 -53 159 -12 -139 -423 -526 0 -137 423 159 12 0 53 -367 0zm366 -558l479 -9 -235 -720 -5 0 -239 729zm1120 -1065l0 -53 252 0 1008 1222 2 0 -16 -1157 -180 -12 0 -53 434 0 0 53 -180 12 13 1635 -72 0 -1009 -1226 -2 0 17 1137 179 12 0 53 -434 0 0 -53 181 -12 -13 -1546 -180 -12zm1623 815c0,-87 9,-173 28,-257 19,-85 49,-167 90,-246 41,-79 91,-148 151,-208 59,-60 133,-108 220,-144 88,-36 184,-54 289,-54 123,0 230,33 323,100 93,67 140,146 140,238 0,46 -15,85 -44,118 -30,33 -70,49 -121,49 -48,0 -88,-15 -118,-45 -31,-30 -46,-69 -46,-115 0,-45 15,-84 43,-115 29,-31 65,-46 109,-46 8,0 14,0 18,1l0 -4c-12,-23 -43,-47 -95,-75 -52,-27 -114,-41 -186,-41 -143,0 -260,74 -351,222 -92,148 -138,343 -138,586 0,104 10,203 28,296 18,93 44,177 80,253 35,76 83,136 144,181 60,46 129,68 206,68 111,0 208,-33 290,-99 83,-66 147,-151 192,-254l56 26c-112,276 -300,414 -565,414 -115,0 -217,-16 -305,-48 -88,-33 -160,-75 -214,-128 -55,-53 -99,-117 -133,-192 -35,-75 -58,-151 -72,-229 -12,-77 -19,-161 -19,-252zm1368 808l0 -53 180 -12 0 -1546 -180 -12 0 -53 1157 0 11 478 -49 0c-9,-53 -19,-98 -30,-135 -10,-37 -26,-75 -45,-113 -20,-37 -43,-67 -69,-89 -26,-23 -60,-41 -101,-55 -41,-14 -89,-21 -143,-21 -66,0 -150,4 -250,12l0 697c23,3 66,4 128,4 83,0 142,-20 177,-61 36,-40 53,-113 53,-219l65 0 0 630 -65 0c0,-107 -18,-181 -53,-222 -36,-42 -95,-63 -177,-63 -60,0 -103,1 -128,3l0 753c100,8 199,12 298,12 46,0 86,-4 122,-11 35,-8 65,-20 91,-37 26,-17 48,-37 66,-58 18,-22 34,-49 47,-83 14,-34 25,-67 34,-100 8,-34 18,-75 27,-125l50 0 -12 479 -1204 0z"/>
   <polyline class="fil1 str0" points="3340,5396 3340,75 14632,75 14632,5396 "/>
   <polyline class="fil1 str0" points="3340,10755 3340,11367 14632,11367 14632,10755 "/>
   <path class="fil2" d="M5927 1477l0 -19 63 -4 0 -546 -63 -4 0 -18 177 0 173 441 1 0 162 -441 170 0 0 18 -64 4 0 546 64 4 0 19 -234 0 0 -19 64 -4 1 -507 -1 0 -197 539 -15 0 -219 -558 -1 0 6 526 63 4 0 19 -150 0zm902 0l0 -19 50 -4 196 -585 19 0 203 585 54 4 0 19 -221 0 0 -19 56 -4 -49 -149 -186 0 -48 149 56 4 0 19 -130 0zm129 -197l170 -3 -83 -254 -2 0 -85 257zm607 -376l0 -18 88 0 356 431 1 0 -6 -409 -63 -4 0 -18 153 0 0 18 -63 4 4 578 -25 0 -356 -433 -1 0 6 401 63 4 0 19 -153 0 0 -19 64 -4 -5 -546 -63 -4zm783 279c0,-57 10,-109 30,-156 21,-47 51,-84 90,-113 40,-28 86,-43 137,-43 78,0 141,28 189,83 47,55 71,127 71,216 0,33 -3,64 -10,95 -6,30 -16,60 -30,87 -14,27 -31,52 -50,72 -20,21 -44,37 -73,49 -29,12 -60,18 -94,18 -81,0 -145,-28 -191,-84 -46,-56 -69,-131 -69,-224zm111 -9c0,54 5,104 16,147 11,44 27,80 50,107 22,27 49,41 80,41 47,0 83,-27 110,-81 26,-54 39,-125 39,-215 0,-92 -13,-162 -39,-209 -25,-47 -61,-70 -107,-70 -16,0 -31,3 -46,10 -14,7 -28,17 -41,32 -12,15 -23,33 -32,54 -9,21 -17,48 -22,79 -6,32 -8,67 -8,105zm584 350c0,-17 6,-31 17,-43 11,-12 25,-18 42,-18 19,0 33,5 43,16 11,11 16,25 16,40 0,9 -3,19 -9,30 -5,10 -13,18 -23,23l1 1c4,6 12,8 25,8 4,0 8,0 11,0 4,-1 8,-2 13,-4 5,-2 9,-5 12,-10 4,-5 7,-11 11,-19 3,-7 5,-17 7,-30 2,-13 3,-28 3,-44l0 -566 -80 -4 0 -18 250 0 0 18 -64 4 0 478c0,36 -4,69 -13,97 -8,27 -18,49 -31,64 -12,15 -26,27 -42,36 -17,9 -32,15 -44,18 -13,2 -26,3 -40,3 -29,0 -54,-7 -74,-21 -21,-14 -31,-34 -31,-59zm614 -207c0,-47 17,-87 49,-120 33,-33 79,-52 136,-57l0 -1c-15,-1 -29,-2 -43,-4 -13,-3 -27,-7 -41,-13 -14,-6 -27,-13 -37,-22 -10,-9 -19,-21 -25,-35 -7,-14 -10,-31 -10,-49 0,-12 2,-25 5,-37 4,-13 10,-26 19,-39 9,-13 20,-25 33,-35 13,-10 30,-18 51,-24 21,-7 45,-10 71,-10 26,0 48,3 68,10 19,7 34,15 44,24 10,9 19,19 25,30 6,12 10,21 12,28 1,6 2,14 2,21 0,16 -5,31 -16,42 -10,12 -25,18 -44,18 -16,0 -29,-5 -40,-16 -10,-11 -15,-26 -15,-43 0,-16 5,-28 15,-39 10,-10 24,-16 41,-16l-1 -2c-5,-10 -14,-19 -27,-25 -14,-6 -29,-9 -46,-9 -31,0 -54,10 -70,30 -15,20 -23,47 -23,82 0,39 10,70 29,91 20,22 46,32 80,32l6 0 0 23 -7 0c-18,0 -35,2 -49,7 -14,5 -26,11 -35,20 -9,8 -16,17 -23,27 -6,10 -11,20 -14,32 -3,12 -6,23 -7,33 -1,10 -2,21 -2,32 0,52 11,92 33,120 22,27 54,41 96,41 12,0 23,-1 36,-4 12,-2 26,-8 41,-16 16,-8 29,-18 41,-30 11,-13 21,-30 29,-52 8,-22 12,-47 12,-75l0 -23 -17 1 -84 0c-13,0 -25,1 -35,3 -10,2 -18,4 -23,6 -5,3 -9,6 -12,10 -3,4 -5,8 -5,10 -1,3 -1,6 -1,10 0,9 3,15 8,18l2 0c3,-6 9,-11 16,-14 7,-3 14,-5 20,-5 12,0 23,4 31,11 9,8 13,18 13,32 0,13 -4,24 -14,33 -9,8 -20,12 -32,12 -18,0 -33,-6 -46,-18 -13,-12 -20,-32 -20,-60 0,-6 1,-11 1,-17 1,-5 2,-13 5,-22 3,-9 6,-17 11,-24 4,-7 11,-15 19,-23 9,-8 19,-15 31,-21 12,-5 27,-10 45,-13 19,-4 39,-6 62,-6l83 0c14,0 26,-1 36,-3 10,-2 17,-4 22,-7 6,-2 10,-5 13,-10 3,-3 4,-7 5,-10 1,-2 1,-5 1,-9 0,-9 -3,-15 -9,-18l-1 0c-3,6 -9,10 -16,14 -7,3 -14,5 -20,5 -12,0 -23,-4 -32,-11 -8,-8 -13,-19 -13,-32 0,-14 5,-24 14,-33 9,-8 20,-13 33,-13 17,0 33,7 46,19 13,12 19,32 19,60 0,6 0,12 -1,18 -1,6 -3,14 -5,23 -3,10 -7,19 -13,27 -6,8 -14,16 -23,24 -10,8 -22,14 -38,20 -16,6 -34,10 -54,12 0,9 1,18 1,26 0,29 -4,56 -12,80 -8,24 -20,45 -36,64 -16,18 -37,33 -63,43 -27,10 -57,15 -92,15 -40,0 -75,-4 -104,-13 -29,-10 -52,-23 -68,-39 -16,-17 -28,-35 -36,-55 -7,-21 -11,-43 -11,-67zm796 -125c0,-31 3,-61 10,-91 7,-30 17,-59 32,-86 14,-28 32,-53 53,-74 21,-21 47,-38 78,-51 31,-12 65,-19 102,-19 43,0 81,12 114,36 33,23 49,51 49,83 0,17 -5,30 -16,42 -10,12 -24,17 -42,17 -17,0 -31,-5 -42,-16 -11,-10 -16,-24 -16,-40 0,-16 5,-30 15,-41 10,-10 23,-16 38,-16 3,0 6,0 7,0l0 -1c-4,-8 -15,-17 -34,-26 -18,-10 -40,-15 -65,-15 -51,0 -92,26 -124,78 -32,53 -49,122 -49,207 0,37 4,72 10,105 6,32 16,62 28,89 13,27 30,48 51,64 21,16 45,24 73,24 39,0 73,-12 102,-35 29,-23 52,-53 68,-90l20 9c-40,98 -106,146 -200,146 -40,0 -76,-5 -107,-16 -32,-12 -57,-27 -76,-45 -19,-19 -35,-42 -47,-68 -12,-27 -20,-54 -25,-81 -5,-27 -7,-57 -7,-89zm704 -9c0,-57 10,-109 31,-156 20,-47 50,-84 90,-113 39,-28 85,-43 137,-43 78,0 140,28 188,83 48,55 71,127 71,216 0,33 -3,64 -9,95 -7,30 -17,60 -31,87 -14,27 -30,52 -50,72 -20,21 -44,37 -73,49 -28,12 -60,18 -94,18 -81,0 -144,-28 -191,-84 -46,-56 -69,-131 -69,-224zm111 -9c0,54 5,104 16,147 11,44 28,80 50,107 23,27 50,41 81,41 46,0 82,-27 109,-81 26,-54 39,-125 39,-215 0,-92 -12,-162 -38,-209 -26,-47 -62,-70 -108,-70 -16,0 -31,3 -46,10 -14,7 -28,17 -40,32 -13,15 -24,33 -33,54 -9,21 -17,48 -22,79 -5,32 -8,67 -8,105zm662 262c0,-18 6,-32 16,-42 11,-11 25,-16 42,-16 17,0 31,5 41,16 11,10 16,24 16,42 0,16 -5,30 -16,40 -10,10 -24,15 -41,15 -17,0 -31,-5 -42,-15 -10,-10 -16,-24 -16,-40z"/>
   <g>
    <g>
     <polygon class="fil3" points="4144,5178 4615,5183 4615,4060 4144,3615 "/>
     <polygon class="fil3" points="7563,2410 5837,4235 4144,2384 4144,3062 5843,4907 7156,3458 7156,5189 7568,5189 "/>
    </g>
    <path class="fil3" d="M12347 2412c818,0 1481,615 1481,1375 0,759 -663,1374 -1481,1374 -818,0 -1481,-615 -1481,-1374 0,-760 663,-1375 1481,-1375zm0 407c576,0 1042,433 1042,968 0,534 -466,967 -1042,967 -575,0 -1042,-433 -1042,-967 0,-535 467,-968 1042,-968z"/>
    <path class="fil3" d="M9270 2819c361,0 696,174 885,458l490 0c-224,-521 -768,-865 -1375,-865 -818,0 -1481,615 -1481,1375 0,759 663,1374 1481,1374 588,0 1121,-324 1356,-823l-500 0c-195,260 -514,416 -856,416 -576,0 -1042,-433 -1042,-967 0,-535 466,-968 1042,-968z"/>
   </g>
  </g>
 </g>
</svg>
